<svg width="20" height="21" viewBox="0 0 20 21" fill="none" xmlns="http://www.w3.org/2000/svg">
<g clip-path="url(#clip0_51_122)">
<path d="M10 2.44672V4.11338" stroke="#9A9C9F" stroke-width="2" stroke-linecap="round" stroke-linejoin="round"/>
<path d="M4.1084 4.88837L5.2834 6.06337" stroke="#9A9C9F" stroke-width="2" stroke-linecap="round" stroke-linejoin="round"/>
<path d="M16.6667 10.78H18.3334" stroke="#9A9C9F" stroke-width="2" stroke-linecap="round" stroke-linejoin="round"/>
<path d="M15.8916 4.88837L14.7166 6.06337" stroke="#9A9C9F" stroke-width="2" stroke-linecap="round" stroke-linejoin="round"/>
<path d="M13.2891 11.3217C13.3916 10.7005 13.3161 10.0629 13.0713 9.48275C12.8265 8.90263 12.4224 8.40372 11.9057 8.04377C11.3891 7.68383 10.7811 7.47758 10.1521 7.4489C9.52308 7.42021 8.89881 7.57028 8.35156 7.88171" stroke="#9A9C9F" stroke-width="2" stroke-linecap="round" stroke-linejoin="round"/>
<path d="M10.8333 19.1134H5.8333C5.04494 19.1132 4.2728 18.8894 3.60657 18.4679C2.94033 18.0464 2.40734 17.4446 2.06949 16.7323C1.73164 16.02 1.6028 15.2265 1.69793 14.4439C1.79307 13.6613 2.10827 12.9217 2.60693 12.3111C3.1056 11.7005 3.76726 11.2439 4.51507 10.9943C5.26288 10.7448 6.06615 10.7125 6.83158 10.9012C7.59702 11.0899 8.29321 11.4919 8.8393 12.0605C9.38539 12.6291 9.75896 13.3409 9.91663 14.1134H10.8333C11.4963 14.1134 12.1322 14.3768 12.6011 14.8456C13.0699 15.3144 13.3333 15.9503 13.3333 16.6134C13.3333 17.2764 13.0699 17.9123 12.6011 18.3811C12.1322 18.85 11.4963 19.1134 10.8333 19.1134Z" stroke="#9A9C9F" stroke-width="2" stroke-linecap="round" stroke-linejoin="round"/>
</g>
<defs>
<clipPath id="clip0_51_122">
<rect width="20" height="20" fill="white" transform="translate(0 0.780029)"/>
</clipPath>
</defs>
</svg>
