<svg width="25" height="25" viewBox="0 0 25 25" fill="none" xmlns="http://www.w3.org/2000/svg">
<path d="M6.5 12.5C7.36548 11.8509 8.41815 11.5 9.5 11.5C10.5819 11.5 11.6345 11.8509 12.5 12.5C13.3655 13.1491 14.4181 13.5 15.5 13.5C16.5819 13.5 17.6345 13.1491 18.5 12.5M15.7 22.5H9.3C8.80402 22.5027 8.32472 22.3211 7.95514 21.9903C7.58556 21.6595 7.35207 21.2032 7.3 20.71L5.5 3.5H19.5L17.69 20.71C17.6381 21.2015 17.406 21.6564 17.0386 21.987C16.6711 22.3175 16.1943 22.5003 15.7 22.5Z" stroke="#00ADB5" stroke-width="2.2" stroke-linecap="round" stroke-linejoin="round"/>
</svg>
