<svg width="20" height="21" viewBox="0 0 20 21" fill="none" xmlns="http://www.w3.org/2000/svg">
<path d="M10 2.56C9.00544 3.55456 8.4467 4.90347 8.4467 6.31C8.4467 7.71652 9.00544 9.06544 10 10.06C10.9946 11.0546 12.3435 11.6133 13.75 11.6133C15.1565 11.6133 16.5054 11.0546 17.5 10.06C17.5 11.5434 17.0601 12.9934 16.236 14.2268C15.4119 15.4601 14.2406 16.4214 12.8701 16.9891C11.4997 17.5568 9.99168 17.7053 8.53683 17.4159C7.08197 17.1265 5.7456 16.4122 4.6967 15.3633C3.64781 14.3144 2.9335 12.978 2.64411 11.5232C2.35472 10.0683 2.50325 8.56032 3.07091 7.18987C3.63856 5.81943 4.59986 4.64809 5.83323 3.82398C7.0666 2.99987 8.51664 2.56 10 2.56Z" stroke="#9A9C9F" stroke-width="2" stroke-linecap="round" stroke-linejoin="round"/>
</svg>
