<svg width="24" height="25" viewBox="0 0 24 25" fill="none" xmlns="http://www.w3.org/2000/svg">
<path d="M9 3.5H4C3.44772 3.5 3 3.94772 3 4.5V9.5C3 10.0523 3.44772 10.5 4 10.5H9C9.55228 10.5 10 10.0523 10 9.5V4.5C10 3.94772 9.55228 3.5 9 3.5Z" stroke="currentColor" stroke-width="2.2" stroke-linecap="round" stroke-linejoin="round"/>
<path d="M9 14.5H4C3.44772 14.5 3 14.9477 3 15.5V20.5C3 21.0523 3.44772 21.5 4 21.5H9C9.55228 21.5 10 21.0523 10 20.5V15.5C10 14.9477 9.55228 14.5 9 14.5Z" stroke="currentColor" stroke-width="2.2" stroke-linecap="round" stroke-linejoin="round"/>
<path d="M14 4.5H21" stroke="currentColor" stroke-width="2.2" stroke-linecap="round" stroke-linejoin="round"/>
<path d="M14 9.5H21" stroke="currentColor" stroke-width="2.2" stroke-linecap="round" stroke-linejoin="round"/>
<path d="M14 15.5H21" stroke="currentColor" stroke-width="2.2" stroke-linecap="round" stroke-linejoin="round"/>
<path d="M14 20.5H21" stroke="currentColor" stroke-width="2.2" stroke-linecap="round" stroke-linejoin="round"/>
</svg>
